<svg width="20" height="20" viewBox="0 0 20 20" fill="none" xmlns="http://www.w3.org/2000/svg">
<path d="M10.625 7.49999C10.625 7.15481 10.3452 6.87499 10 6.87499C9.65484 6.87499 9.37502 7.15481 9.37502 7.49999L9.37502 9.37501H7.50002C7.15484 9.37501 6.87502 9.65483 6.87502 10C6.87502 10.3452 7.15484 10.625 7.50002 10.625H9.37502V12.5C9.37502 12.8452 9.65484 13.125 10 13.125C10.3452 13.125 10.625 12.8452 10.625 12.5L10.625 10.625H12.5C12.8452 10.625 13.125 10.3452 13.125 10C13.125 9.65483 12.8452 9.37501 12.5 9.37501H10.625V7.49999Z" fill="white"/>
<path fill-rule="evenodd" clip-rule="evenodd" d="M10.0478 1.04166H9.95221C8.02855 1.04165 6.52101 1.04164 5.34478 1.19978C4.14083 1.36165 3.19081 1.69943 2.44513 2.4451C1.69946 3.19078 1.36168 4.1408 1.19981 5.34474C1.04167 6.52098 1.04168 8.02851 1.04169 9.95216V10.0478C1.04168 11.9715 1.04167 13.479 1.19981 14.6552C1.36168 15.8592 1.69946 16.8092 2.44513 17.5549C3.19081 18.3006 4.14083 18.6383 5.34478 18.8002C6.52102 18.9583 8.02855 18.9583 9.95221 18.9583H10.0478C11.9715 18.9583 13.479 18.9583 14.6553 18.8002C15.8592 18.6383 16.8092 18.3006 17.5549 17.5549C18.3006 16.8092 18.6384 15.8592 18.8002 14.6552C18.9584 13.479 18.9584 11.9715 18.9584 10.0478V9.95218C18.9584 8.02852 18.9584 6.52099 18.8002 5.34474C18.6384 4.1408 18.3006 3.19078 17.5549 2.4451C16.8092 1.69943 15.8592 1.36165 14.6553 1.19978C13.479 1.04164 11.9715 1.04165 10.0478 1.04166ZM3.32902 3.32899C3.80373 2.85427 4.446 2.58186 5.51133 2.43863C6.59465 2.29298 8.01817 2.29166 10 2.29166C11.9819 2.29166 13.4054 2.29298 14.4887 2.43863C15.554 2.58186 16.1963 2.85427 16.671 3.32899C17.1457 3.8037 17.4181 4.44597 17.5614 5.5113C17.707 6.59462 17.7084 8.01814 17.7084 9.99999C17.7084 11.9818 17.707 13.4054 17.5614 14.4887C17.4181 15.554 17.1457 16.1963 16.671 16.671C16.1963 17.1457 15.554 17.4181 14.4887 17.5613C13.4054 17.707 11.9819 17.7083 10 17.7083C8.01817 17.7083 6.59465 17.707 5.51133 17.5613C4.446 17.4181 3.80373 17.1457 3.32902 16.671C2.8543 16.1963 2.58189 15.554 2.43866 14.4887C2.29302 13.4054 2.29169 11.9818 2.29169 9.99999C2.29169 8.01814 2.29302 6.59462 2.43866 5.5113C2.58189 4.44597 2.8543 3.8037 3.32902 3.32899Z" fill="white"/>
</svg>
