<svg width="20" height="20" viewBox="0 0 20 20" fill="none" xmlns="http://www.w3.org/2000/svg">
<path fill-rule="evenodd" clip-rule="evenodd" d="M5.83335 1.45834C6.17853 1.45834 6.45835 1.73817 6.45835 2.08334V2.71894C7.01005 2.70833 7.61786 2.70834 8.28634 2.70834H11.7137C12.3822 2.70834 12.99 2.70833 13.5417 2.71894V2.08334C13.5417 1.73817 13.8215 1.45834 14.1667 1.45834C14.5119 1.45834 14.7917 1.73817 14.7917 2.08334V2.77258C15.0083 2.7891 15.2134 2.80986 15.4075 2.83596C16.3846 2.96731 17.1753 3.24408 17.799 3.86771C18.4226 4.49135 18.6994 5.28214 18.8307 6.25916C18.8727 6.5714 18.9009 6.91217 18.9198 7.2834C18.9447 7.35089 18.9584 7.42386 18.9584 7.50001C18.9584 7.55778 18.9505 7.61371 18.9358 7.66681C18.9584 8.33513 18.9584 9.09397 18.9584 9.953V11.7137C18.9584 13.2452 18.9584 14.4582 18.8307 15.4075C18.6994 16.3845 18.4226 17.1753 17.799 17.799C17.1753 18.4226 16.3846 18.6994 15.4075 18.8307C14.4582 18.9584 13.2452 18.9584 11.7137 18.9583H8.28635C6.75488 18.9584 5.54185 18.9584 4.5925 18.8307C3.61548 18.6994 2.82469 18.4226 2.20106 17.799C1.57742 17.1753 1.30066 16.3845 1.1693 15.4075C1.04166 14.4582 1.04167 13.2452 1.04169 11.7137V9.953C1.04168 9.09397 1.04167 8.33513 1.06419 7.66682C1.04952 7.61372 1.04169 7.55778 1.04169 7.50001C1.04169 7.42386 1.05531 7.35088 1.08024 7.2834C1.09915 6.91216 1.12732 6.5714 1.1693 6.25916C1.30066 5.28214 1.57742 4.49135 2.20106 3.86771C2.82469 3.24408 3.61548 2.96731 4.5925 2.83596C4.78661 2.80986 4.99173 2.7891 5.20835 2.77258V2.08334C5.20835 1.73817 5.48818 1.45834 5.83335 1.45834ZM2.30259 8.12501C2.29195 8.66895 2.29169 9.28833 2.29169 10V11.6667C2.29169 13.2557 2.29301 14.3846 2.40815 15.241C2.52087 16.0794 2.73227 16.5624 3.08494 16.9151C3.43761 17.2678 3.92065 17.4792 4.75906 17.5919C5.61545 17.707 6.74434 17.7083 8.33335 17.7083H11.6667C13.2557 17.7083 14.3846 17.707 15.241 17.5919C16.0794 17.4792 16.5624 17.2678 16.9151 16.9151C17.2678 16.5624 17.4792 16.0794 17.5919 15.241C17.707 14.3846 17.7084 13.2557 17.7084 11.6667V10C17.7084 9.28833 17.7081 8.66895 17.6974 8.12501H2.30259ZM17.6403 6.87501H2.35976C2.3731 6.71718 2.38906 6.56771 2.40815 6.42572C2.52087 5.58731 2.73227 5.10427 3.08494 4.7516C3.43761 4.39892 3.92065 4.18753 4.75906 4.07481C5.61545 3.95967 6.74434 3.95834 8.33335 3.95834H11.6667C13.2557 3.95834 14.3846 3.95967 15.241 4.07481C16.0794 4.18753 16.5624 4.39892 16.9151 4.7516C17.2678 5.10427 17.4792 5.58731 17.5919 6.42572C17.611 6.56771 17.6269 6.71719 17.6403 6.87501Z" fill="#64748B"/>
</svg>
