<svg width="32" height="16" viewBox="0 0 32 16" fill="none" xmlns="http://www.w3.org/2000/svg">
<rect width="32" height="16" rx="8" fill="#635BFF" fill-opacity="0.05"/>
<path d="M19.75 9.25246C19.75 11.5397 17.8559 13.3794 15.5688 13.2429C13.218 13.1025 11.6084 10.8418 11.9117 8.47869C12.0951 7.04109 12.7689 5.80831 13.5025 4.85244C13.6298 4.68554 13.7608 6.02832 13.8918 5.88039C14.0228 5.72865 15.2394 3.62346 15.6624 2.8838C15.741 2.74724 15.9206 2.70552 16.0479 2.80414C16.8976 3.44518 19.75 5.85384 19.75 9.25246Z" fill="#635BFF"/>
<path d="M18.625 10.1942C18.625 11.7099 17.3055 12.9282 15.7004 12.8732C13.9681 12.8145 12.7797 11.2291 13.0343 9.596C13.4009 7.25465 15.8046 5.75 15.8046 5.75C15.8046 5.75 18.625 7.5152 18.625 10.1942Z" fill="#CECCFF"/>
</svg>
