<svg width="20" height="20" viewBox="0 0 20 20" fill="none" xmlns="http://www.w3.org/2000/svg">
<path fill-rule="evenodd" clip-rule="evenodd" d="M10 1.04166C7.81387 1.04166 6.04167 2.81386 6.04167 4.99999C6.04167 7.18612 7.81387 8.95832 10 8.95832C12.1861 8.95832 13.9583 7.18612 13.9583 4.99999C13.9583 2.81386 12.1861 1.04166 10 1.04166ZM7.29167 4.99999C7.29167 3.50422 8.50423 2.29166 10 2.29166C11.4958 2.29166 12.7083 3.50422 12.7083 4.99999C12.7083 6.49576 11.4958 7.70832 10 7.70832C8.50423 7.70832 7.29167 6.49576 7.29167 4.99999Z" fill="#64748B"/>
<path fill-rule="evenodd" clip-rule="evenodd" d="M10 10.2083C8.07204 10.2083 6.29577 10.6466 4.97954 11.3869C3.6829 12.1163 2.70833 13.2217 2.70833 14.5833L2.70828 14.6683C2.70734 15.6365 2.70615 16.8516 3.77201 17.7196C4.29657 18.1468 5.0304 18.4505 6.02184 18.6512C7.01605 18.8524 8.31185 18.9583 10 18.9583C11.6881 18.9583 12.9839 18.8524 13.9782 18.6512C14.9696 18.4505 15.7034 18.1468 16.228 17.7196C17.2938 16.8516 17.2927 15.6365 17.2917 14.6683L17.2917 14.5833C17.2917 13.2217 16.3171 12.1163 15.0205 11.3869C13.7042 10.6466 11.928 10.2083 10 10.2083ZM3.95833 14.5833C3.95833 13.8739 4.47615 13.1043 5.59237 12.4764C6.689 11.8596 8.24606 11.4583 10 11.4583C11.7539 11.4583 13.311 11.8596 14.4076 12.4764C15.5239 13.1043 16.0417 13.8739 16.0417 14.5833C16.0417 15.6732 16.0081 16.2867 15.4387 16.7503C15.1299 17.0018 14.6137 17.2472 13.7302 17.4261C12.8494 17.6043 11.6452 17.7083 10 17.7083C8.35481 17.7083 7.15062 17.6043 6.26983 17.4261C5.38627 17.2472 4.8701 17.0018 4.56132 16.7503C3.99193 16.2867 3.95833 15.6732 3.95833 14.5833Z" fill="#64748B"/>
</svg>
