<svg width="20" height="20" viewBox="0 0 20 20" fill="none" xmlns="http://www.w3.org/2000/svg">
<path fill-rule="evenodd" clip-rule="evenodd" d="M5.37335 1.45834C4.62462 1.45832 4.00026 1.4583 3.50461 1.52494C2.98145 1.59528 2.50912 1.75 2.12956 2.12956C1.75 2.50912 1.59528 2.98145 1.52494 3.50461C1.4583 4.00026 1.45832 4.6246 1.45834 5.37332V5.46001C1.45832 6.20874 1.4583 6.8331 1.52494 7.32875C1.59528 7.85191 1.75 8.32424 2.12956 8.7038C2.50912 9.08336 2.98145 9.23808 3.50461 9.30842C4.00026 9.37506 4.6246 9.37504 5.37332 9.37502H5.46001C6.20873 9.37504 6.8331 9.37506 7.32875 9.30842C7.85191 9.23808 8.32424 9.08336 8.7038 8.7038C9.08336 8.32424 9.23808 7.85191 9.30842 7.32875C9.37506 6.8331 9.37504 6.20876 9.37502 5.46003V5.37335C9.37504 4.62463 9.37506 4.00026 9.30842 3.50461C9.23808 2.98145 9.08336 2.50912 8.7038 2.12956C8.32424 1.75 7.85191 1.59528 7.32875 1.52494C6.8331 1.4583 6.20876 1.45832 5.46004 1.45834H5.37335ZM3.01344 3.01344C3.12204 2.90485 3.28662 2.81549 3.67117 2.76379C4.0737 2.70967 4.61334 2.70835 5.41668 2.70835C6.22002 2.70835 6.75966 2.70967 7.16219 2.76379C7.54674 2.81549 7.71132 2.90485 7.81992 3.01344C7.92851 3.12204 8.01787 3.28662 8.06957 3.67117C8.12369 4.0737 8.12501 4.61334 8.12501 5.41668C8.12501 6.22002 8.12369 6.75966 8.06957 7.16219C8.01787 7.54674 7.92851 7.71132 7.81992 7.81992C7.71132 7.92851 7.54674 8.01787 7.16219 8.06957C6.75966 8.12369 6.22002 8.12501 5.41668 8.12501C4.61334 8.12501 4.0737 8.12369 3.67117 8.06957C3.28662 8.01787 3.12204 7.92851 3.01344 7.81992C2.90485 7.71132 2.81549 7.54674 2.76379 7.16219C2.70967 6.75966 2.70835 6.22002 2.70835 5.41668C2.70835 4.61334 2.70967 4.0737 2.76379 3.67117C2.81549 3.28662 2.90485 3.12204 3.01344 3.01344Z" fill="#64748B"/>
<path d="M15.2083 2.91668C15.2083 2.5715 14.9285 2.29168 14.5833 2.29168C14.2382 2.29168 13.9583 2.5715 13.9583 2.91668V4.79168H12.0833C11.7382 4.79168 11.4583 5.0715 11.4583 5.41668C11.4583 5.76186 11.7382 6.04168 12.0833 6.04168H13.9583V7.91668C13.9583 8.26186 14.2382 8.54168 14.5833 8.54168C14.9285 8.54168 15.2083 8.26186 15.2083 7.91668V6.04168H17.0833C17.4285 6.04168 17.7083 5.76186 17.7083 5.41668C17.7083 5.0715 17.4285 4.79168 17.0833 4.79168H15.2083V2.91668Z" fill="#64748B"/>
<path fill-rule="evenodd" clip-rule="evenodd" d="M14.54 10.625H14.6267C15.3754 10.625 15.9998 10.625 16.4954 10.6916C17.0186 10.7619 17.4909 10.9167 17.8705 11.2962C18.25 11.6758 18.4048 12.1481 18.4751 12.6713C18.5417 13.1669 18.5417 13.7913 18.5417 14.54V14.6267C18.5417 15.3754 18.5417 15.9998 18.4751 16.4954C18.4048 17.0186 18.25 17.4909 17.8705 17.8705C17.4909 18.25 17.0186 18.4048 16.4954 18.4751C15.9998 18.5417 15.3754 18.5417 14.6267 18.5417H14.54C13.7913 18.5417 13.1669 18.5417 12.6713 18.4751C12.1481 18.4048 11.6758 18.25 11.2962 17.8705C10.9167 17.4909 10.7619 17.0186 10.6916 16.4954C10.625 15.9998 10.625 15.3754 10.625 14.6267V14.54C10.625 13.7913 10.625 13.1669 10.6916 12.6713C10.7619 12.1481 10.9167 11.6758 11.2962 11.2962C11.6758 10.9167 12.1481 10.7619 12.6713 10.6916C13.1669 10.625 13.7913 10.625 14.54 10.625ZM12.8378 11.9305C12.4533 11.9822 12.2887 12.0715 12.1801 12.1801C12.0715 12.2887 11.9822 12.4533 11.9305 12.8378C11.8763 13.2404 11.875 13.78 11.875 14.5833C11.875 15.3867 11.8763 15.9263 11.9305 16.3289C11.9822 16.7134 12.0715 16.878 12.1801 16.9866C12.2887 17.0952 12.4533 17.1845 12.8378 17.2362C13.2404 17.2904 13.78 17.2917 14.5833 17.2917C15.3867 17.2917 15.9263 17.2904 16.3289 17.2362C16.7134 17.1845 16.878 17.0952 16.9866 16.9866C17.0952 16.878 17.1845 16.7134 17.2362 16.3289C17.2904 15.9263 17.2917 15.3867 17.2917 14.5833C17.2917 13.78 17.2904 13.2404 17.2362 12.8378C17.1845 12.4533 17.0952 12.2887 16.9866 12.1801C16.878 12.0715 16.7134 11.9822 16.3289 11.9305C15.9263 11.8763 15.3867 11.875 14.5833 11.875C13.78 11.875 13.2404 11.8763 12.8378 11.9305Z" fill="#64748B"/>
<path fill-rule="evenodd" clip-rule="evenodd" d="M5.37335 10.625C4.62461 10.625 4.00026 10.625 3.50461 10.6916C2.98145 10.7619 2.50912 10.9167 2.12956 11.2962C1.75 11.6758 1.59528 12.1481 1.52494 12.6713C1.4583 13.1669 1.45832 13.7913 1.45834 14.54V14.6267C1.45832 15.3754 1.4583 15.9998 1.52494 16.4954C1.59528 17.0186 1.75 17.4909 2.12956 17.8705C2.50912 18.25 2.98145 18.4048 3.50461 18.4751C4.00026 18.5417 4.6246 18.5417 5.37332 18.5417H5.46001C6.20873 18.5417 6.8331 18.5417 7.32875 18.4751C7.85191 18.4048 8.32424 18.25 8.7038 17.8705C9.08336 17.4909 9.23808 17.0186 9.30842 16.4954C9.37506 15.9998 9.37504 15.3754 9.37502 14.6267V14.54C9.37504 13.7913 9.37506 13.1669 9.30842 12.6713C9.23808 12.1481 9.08336 11.6758 8.7038 11.2962C8.32424 10.9167 7.85191 10.7619 7.32875 10.6916C6.8331 10.625 6.20875 10.625 5.46001 10.625H5.37335ZM3.01344 12.1801C3.12204 12.0715 3.28662 11.9822 3.67117 11.9305C4.0737 11.8763 4.61334 11.875 5.41668 11.875C6.22002 11.875 6.75966 11.8763 7.16219 11.9305C7.54674 11.9822 7.71132 12.0715 7.81992 12.1801C7.92851 12.2887 8.01787 12.4533 8.06957 12.8378C8.12369 13.2404 8.12501 13.78 8.12501 14.5833C8.12501 15.3867 8.12369 15.9263 8.06957 16.3289C8.01787 16.7134 7.92851 16.878 7.81992 16.9866C7.71132 17.0952 7.54674 17.1845 7.16219 17.2362C6.75966 17.2904 6.22002 17.2917 5.41668 17.2917C4.61334 17.2917 4.0737 17.2904 3.67117 17.2362C3.28662 17.1845 3.12204 17.0952 3.01344 16.9866C2.90485 16.878 2.81549 16.7134 2.76379 16.3289C2.70967 15.9263 2.70835 15.3867 2.70835 14.5833C2.70835 13.78 2.70967 13.2404 2.76379 12.8378C2.81549 12.4533 2.90485 12.2887 3.01344 12.1801Z" fill="#64748B"/>
</svg>
